<?xml version="1.0" encoding="UTF-8"?>
<!DOCTYPE svg PUBLIC "-//W3C//DTD SVG 1.1//EN" "http://www.w3.org/Graphics/SVG/1.1/DTD/svg11.dtd">
<!-- Creator: CorelDRAW -->
<svg xmlns="http://www.w3.org/2000/svg" xml:space="preserve" width="2048px" height="2048px" style="shape-rendering:geometricPrecision; text-rendering:geometricPrecision; image-rendering:optimizeQuality; fill-rule:evenodd; clip-rule:evenodd"
viewBox="0 0 2048 2048"
 xmlns:xlink="http://www.w3.org/1999/xlink">
 <defs>
  <style type="text/css">
   <![CDATA[
    .fil2 {fill:none}
    .fil1 {fill:#00ACC1}
    .fil0 {fill:#4DD0E1}
    .fil5 {fill:#898989}
    .fil3 {fill:#B6B6B6}
    .fil4 {fill:#BDBDBD}
    .fil7 {fill:#E0E0E0}
    .fil6 {fill:#EEEEEE}
   ]]>
  </style>
   <clipPath id="id0">
    <path d="M1024 0c565.539,0 1024,458.461 1024,1024 0,565.539 -458.461,1024 -1024,1024 -565.539,0 -1024,-458.461 -1024,-1024 0,-565.539 458.461,-1024 1024,-1024z"/>
   </clipPath>
 </defs>
 <g id="Layer_x0020_1">
  <metadata id="CorelCorpID_0Corel-Layer"/>
  <path class="fil0" d="M1024 0c565.539,0 1024,458.461 1024,1024 0,565.539 -458.461,1024 -1024,1024 -565.539,0 -1024,-458.461 -1024,-1024 0,-565.539 458.461,-1024 1024,-1024z"/>
  <g style="clip-path:url(#id0)">
   <g id="_461751872">
    <g>
     <polygon id="_4801293281" class="fil1" points="1316.12,463.999 2452,1599.88 2452,1624.31 1316.12,488.424 "/>
     <polygon id="_480133144" class="fil1" points="1316.12,488.424 2452,1624.31 2452,1648.65 1316.12,512.769 "/>
     <polygon id="_480128872" class="fil1" points="1316.12,512.769 2452,1648.65 2452,1770.29 1316.12,634.41 "/>
     <polygon id="_480129712" class="fil1" points="1389.25,634.41 2525.13,1770.29 2525.13,1794.72 1389.25,658.836 "/>
     <polygon id="_480126976" class="fil1" points="1389.25,658.836 2525.13,1794.72 2525.13,2695.46 1389.25,1559.58 "/>
     <polygon id="_480107704" class="fil1" points="1389.25,1559.58 2525.13,2695.46 2525.13,2719.88 1389.25,1584 "/>
     <polygon id="_480122272" class="fil1" points="1389.25,1584 2525.13,2719.88 2500.7,2719.88 1364.82,1584 "/>
     <polygon id="_480126112" class="fil1" points="1364.82,1584 2500.7,2719.88 2159.95,2719.88 1024.07,1584 "/>
     <polygon id="_480129640" class="fil1" points="1024.07,1584 2159.95,2719.88 2159.88,2719.88 1024,1584 "/>
     <polygon id="_480123712" class="fil1" points="1024,1584 2159.88,2719.88 1819.06,2719.88 683.18,1584 "/>
     <polygon id="_480123184" class="fil1" points="683.18,1584 1819.06,2719.88 1794.63,2719.88 658.753,1584 "/>
    </g>
    <polygon id="_461743616" class="fil1" points="1024,463.999 1024.83,463.999 1291.79,463.999 1316.12,463.999 1316.12,488.424 1316.12,512.769 1316.12,634.41 1364.82,634.41 1389.25,634.41 1389.25,658.836 1389.25,1559.58 1389.25,1584 1364.82,1584 1024.07,1584 1024,1584 683.18,1584 658.753,1584 658.753,1559.58 658.753,658.779 658.753,634.43 683.18,634.449 731.786,634.486 731.786,512.769 731.786,488.424 731.786,463.999 756.212,463.999 "/>
   </g>
  </g>
  <path class="fil2" d="M1024 0c565.539,0 1024,458.461 1024,1024 0,565.539 -458.461,1024 -1024,1024 -565.539,0 -1024,-458.461 -1024,-1024 0,-565.539 458.461,-1024 1024,-1024z"/>
  <polygon class="fil3" points="1024,463.999 1024.83,463.999 1291.79,463.999 1316.12,463.999 1316.12,488.425 1316.12,634.41 1364.82,634.41 1389.25,634.41 1389.25,658.836 1389.25,1559.57 1389.25,1584 1364.82,1584 1024.07,1584 1024,1584 "/>
  <polygon class="fil4" points="756.212,463.999 1024,463.999 1024,1584 683.178,1584 658.753,1584 658.753,1559.57 658.753,658.779 658.753,634.43 683.178,634.449 731.786,634.486 731.786,488.425 731.786,463.999 "/>
  <polygon class="fil5" points="756.212,463.999 1291.79,463.999 1316.12,463.999 1316.12,488.425 1316.12,512.77 731.786,512.77 731.786,488.425 731.786,463.999 "/>
  <polygon class="fil6" points="1048.34,756.213 1246.9,1462.19 1243.1,1462.19 1072.69,1462.19 1048.34,1462.19 1048.34,1437.85 1048.34,780.558 "/>
  <polygon class="fil7" points="1267.45,780.558 1267.45,1437.85 1267.45,1462.19 1246.99,1462.19 1246.9,1462.19 1048.34,756.213 1246.9,1462.19 1048.34,756.213 1049.24,756.213 1072.69,756.213 1243.1,756.213 1267.45,756.213 "/>
  <polygon class="fil5" points="780.557,756.213 975.311,756.213 975.311,799.995 780.557,799.995 "/>
  <polygon class="fil5" points="780.557,921.763 975.311,921.763 975.311,965.545 780.557,965.545 "/>
  <polygon class="fil5" points="780.557,1087.31 975.311,1087.31 975.311,1131.09 780.557,1131.09 "/>
  <polygon class="fil5" points="780.557,1252.86 975.311,1252.86 975.311,1296.64 780.557,1296.64 "/>
  <polygon class="fil5" points="780.557,1418.41 975.311,1418.41 975.311,1462.19 780.557,1462.19 "/>
 </g>
</svg>
