<?xml version="1.0" encoding="UTF-8"?> <svg xmlns="http://www.w3.org/2000/svg" xmlns:xlink="http://www.w3.org/1999/xlink" viewBox="0 0 289 80"><defs><style>.cls-1{fill:url(#linear-gradient);}.cls-2{fill:url(#linear-gradient-2);}.cls-3{fill:url(#linear-gradient-3);}.cls-4{fill:url(#linear-gradient-4);}.cls-5{fill:url(#linear-gradient-5);}.cls-6{fill:#4d4d4f;}.cls-7{fill:#e9242a;}</style><linearGradient id="linear-gradient" x1="260.7352" y1="29.3037" x2="99.5178" y2="32.1732" gradientUnits="userSpaceOnUse"><stop offset="0" stop-color="#d5942b"></stop><stop offset="0.0411" stop-color="#d99a28"></stop><stop offset="0.1571" stop-color="#e1a521"></stop><stop offset="0.2809" stop-color="#e3a91f"></stop><stop offset="0.6685" stop-color="#f3903f"></stop><stop offset="0.8876" stop-color="#ed683c"></stop><stop offset="1" stop-color="#d6611f"></stop></linearGradient><linearGradient id="linear-gradient-2" x1="260.7472" y1="29.9764" x2="99.5298" y2="32.846" xlink:href="#linear-gradient"></linearGradient><linearGradient id="linear-gradient-3" x1="260.7579" y1="30.5768" x2="99.5405" y2="33.4463" xlink:href="#linear-gradient"></linearGradient><linearGradient id="linear-gradient-4" x1="260.7702" y1="31.2665" x2="99.5528" y2="34.136" xlink:href="#linear-gradient"></linearGradient><linearGradient id="linear-gradient-5" x1="260.7843" y1="32.0602" x2="99.5669" y2="34.9298" xlink:href="#linear-gradient"></linearGradient></defs><title>Chinatwon2</title><g id="Layer_2" data-name="Layer 2"><path class="cls-1" d="M112.9839,18.4072a1.307,1.307,0,0,1,1.7558-.333l2.1192,1.3926a2.161,2.161,0,0,1,.9082.7871q.2116.424-.6358.7266a.9789.9789,0,0,0-.5752.9385l-.3027,7.2353q0,.7266.5449,0,.4842-.7566.5752-.7265l1.09,1.4228q.6657.9082.4238,1.332-.2424.4542-1.15.4541h-.8477q-.7265,0-.8173.9082-.2725,5.1468-.4239,10.293-.0308.8775.6358-.0908a.5428.5428,0,0,0,.1513-.2422q.6958-1.06,1.3321-.03l.6357.999q.7266,1.09.5147,1.5137-.2426.4233-1.12.4238h-17.68q-.9082,0-1.15-.333-.3033-.4541.5752-.4541h2.7851q.7266,0,.8174-.9082l.6357-11.3525q0-.7266-.4843-.7266t-.6055.9082a2.3746,2.3746,0,0,1-1.665,1.6954q-1.03.3332-1.6651-.878A3.7911,3.7911,0,0,1,99.1186,32q-.0907-.7266-.3632-.6055-.3033.1816-.3028.9083v1.5439a1.4078,1.4078,0,0,0,.9082,1.2109q3.7236,1.6656,3.5723,5.0254a2.1729,2.1729,0,0,1-1.665,1.9678A1.9821,1.9821,0,0,1,99.27,40.5069L98.8159,37.48q-.3633-.999-.3633-.0908v7.5986a.9713.9713,0,0,1-.9082,1.06q-1.2414.1215-2.4824.333-.969.1509-.9688-.7568V41.1123q0-.9382-.4541-.1513A13.0618,13.0618,0,0,1,91.0962,44.17q-1.1206.8775-1.2412.7569t.1816-1.1807a38.9262,38.9262,0,0,0,1.09-7.75q.06-.7266-.0605-.7266-.394-.1508-.5146-.999l-.6055-2.7851q-.2124-.9682.666-1.0293l.7871-.0606a1.9722,1.9722,0,0,0,1.3926-.8779l.5449-.8174q.545-.8473.0908-.8476a2.2713,2.2713,0,0,1-1.6953-2.543,3.3845,3.3845,0,0,0-.6963-1.8164q-.9389-1.0592-.8174-1.3018t1.09,0l.3633.1211q.7866.2725,1.0293-.4238l.9082-3.1182q.2416-.9081,1.15-.5449,1.3623.5757,2.7246,1.2412a3.7315,3.7315,0,0,1,.9687.7266.5434.5434,0,0,1-.6357.4541,3.4721,3.4721,0,0,0-1.211.6357L94.79,22.585q-.8481.545-.3632.8174a5.7946,5.7946,0,0,1,.999.8173q.3326.5449.9082-.4541.3933-.7866.8779-1.6045a.9547.9547,0,0,1,1.5137-.4541l2.21,1.3624a3.8664,3.8664,0,0,1,1.2413.9384.7091.7091,0,0,1-.03.3633,2.0832,2.0832,0,0,1-1.06.3027,2.6957,2.6957,0,0,0-.8476.6358Q97.8166,27.58,95.395,29.4873q-.8173.6357-.0908.6055l2.664-.1817q.8175-.0908.6055-.7265l-.1816-.3936q-.5449-.9081-.3936-1.09.2418-.3025,1.2715.1211a6.0031,6.0031,0,0,1,3.1182,2.24q.3024.7266.8779.7266.605,0,.6963-.9082.1816-4.3287.4844-8.6582.03-.7566-.6963-.7569h-.6055q-.9082,0-1.12-.4238-.1517-.4233.7568-.4238h8.3555Q111.9238,19.9815,112.9839,18.4072ZM93.185,33.9981,92.58,34.24a1.8013,1.8013,0,0,0-.7266.5146q-.3333.3333.6358.6055l.8476.2119q.7566.1816.7568-.5449v-.6963Q94.0932,33.5445,93.185,33.9981Zm18.1036-1.5743q.03-.7866-.6661-.7871H109.26q-.7264,0-.8173.9082l-.7266,11.3526a.6422.6422,0,0,0,.7266.7265h1.3925q.7266,0,.8174-.9082Q110.9254,38.085,111.2886,32.4238Zm.6357-11.1709q.06-.7866-.6357-.7871h-1.3018q-.7266,0-.8174.9082-.3333,4.3295-.5752,8.6582-.0307.7573.6963.7569h1.332q.7266,0,.8174-.9082Z"></path><path class="cls-2" d="M131.5864,18.7705q.2725-.9382,1.15-.5752l3.36,1.4834q.8474.3633.6357.878a1.8935,1.8935,0,0,1-.7266.3632,1.1636,1.1636,0,0,0-.6054.2725,27.5369,27.5369,0,0,1-2.8457,1.877q-.7574.424.1816,1.09a2.8956,2.8956,0,0,1,.666.7871q.3025.7573.9385-.2119.575-1.029,1.2412-2.0889a.9839.9839,0,0,1,1.5137-.3633q1.3923.7874,2.7851,1.6651.9082.545.9082.8476a.5239.5239,0,0,1-.666.5147q-.6664-.03-1.8164,1.06-2.4221,1.8471-4.8437,3.5419-.8783.6059-.1514.6055,1.8465-.0908,3.6934-.0908.7264-.06.4541-.9688a3.2288,3.2288,0,0,1-.4541-1.0595q.2724-.6658,1.3017.03,1.029.5448,1.4834-.2725a32.8613,32.8613,0,0,0,2.9063-9.3242.8721.8721,0,0,1,1.1811-.7871q2.3305.4848,4.6621,1.06.7266.2725.3936.8174a6.6187,6.6187,0,0,1-1.06.666q-.7574,1.3023-1.665,2.6035-.4542.7266.2724.7266h2.4825q.8174.3633,1.7861-1.2109.8466-.9682,1.6953-.4239l2.4219,1.6954q1.2714.7265.2422,1.4531a1.2177,1.2177,0,0,0-.3946,1.0293q-.0615,9.1728-.6054,14.0166a10.9525,10.9525,0,0,1-.8477,3.6328,3.0152,3.0152,0,0,1-.998,1.12,7.9817,7.9817,0,0,1-3.4512.9082q-1.06,0-1.1807-.9082a3.2882,3.2882,0,0,0-2.9062-3.27q-.999-.1816-.9991-.5147,0-.4841.9082-.4843H148.48q.7266,0,.8779-.9082.5742-5.631.666-11.504V25.461q0-.7566-.7265-.7569H145.876a2.2247,2.2247,0,0,0-1.544.9082,32.2324,32.2324,0,0,1-3.27,3.1182.8992.8992,0,0,0-.0606,1.5439,3.6531,3.6531,0,0,1,.6661,2.3614q-.4242,2.21-2.3008,2.27-1.3323-.3633-1.3018-2.5127-.0607-.8775-.7265-.6358a1.1074,1.1074,0,0,0-.7569,1.06v1.9072q0,.7266.9082,1.12,3.1788,1.09,3.8145,3.27a2.163,2.163,0,0,1-1.544,2.9365,1.92,1.92,0,0,1-1.5136-.4238,3.7761,3.7761,0,0,1-1.06-2.9971,2.2419,2.2419,0,0,0-.1514-.6055q-.454-.9081-.4541.0909v6.63a.9713.9713,0,0,1-.9082,1.06q-1.2714.1217-2.5429.333-1.03.1216-1.0293-.6963V41.1729q0-.9682-.4844-.1817a11.1144,11.1144,0,0,1-3.1182,3.7539q-1.1207.7866-1.2412.666t.1816-1.1806a33.2629,33.2629,0,0,0,1.1807-7.75q.03-.7266-.0908-.7569-.3633-.0907-.5752-.999l-.6963-3.0273q-.2424-1.0292.7568-1.0293l1.4229-.03a2.0851,2.0851,0,0,0,1.4531-.9385l.2119-.2724q.6051-.8173.1211-.9082A2.7291,2.7291,0,0,1,129.77,27.55a5.3607,5.3607,0,0,1-.4541-2.0888,4.8385,4.8385,0,0,0-1.09-2.1192q-.8483-.8773-.7266-1.12.1209-.2724,1.06.03a4.6013,4.6013,0,0,1,.8476.2724q.7266.2725,1.09-.666Q131.1016,20.3145,131.5864,18.7705Zm-.4844,15.3184-.6054.2119a1.1878,1.1878,0,0,1-.4239.1514q-.7572.3032-.8779.5752-.2124.3032.7871.5449l1.3623.3633q.7566.2424.7569-.5147v-.9385Q132.1011,33.7258,131.102,34.0889Zm10.6866-5.0557q.2417-.3024,1.0595,0a11.8185,11.8185,0,0,1,4.5718,2.7852,4.5493,4.5493,0,0,1,.7871,2.4219,2.7653,2.7653,0,0,1-1.7256,2.6943q-2.21.5148-2.8154-1.9981l-.333-2.4218a7.4234,7.4234,0,0,0-1-2.4219Q141.6669,29.2153,141.7886,29.0332Z"></path><path class="cls-3" d="M186.79,24.4619q.8468-.9682,1.7256-.2422l1.2412.9991q.999.8173.7266,1.2109a1.4522,1.4522,0,0,1-1.2412.4541h-2.0889q-.7573,0-.7568.7266v2.5429c0,.5049.1406.7569.4238.7569s.6855-.3028,1.2109-.9082a9.8512,9.8512,0,0,1,.7569-.9082q.6957-.8175,1.665,0l1.2109.9687q.9991.8481.7266,1.2412a1.4123,1.4123,0,0,1-1.2109.4541h-4.0264q-.7573,0-.7568.7266v2.18q0,.7874.7871-.1211a1.2218,1.2218,0,0,0,.2724-.3027,1.0992,1.0992,0,0,1,1.6954-.1514l1.2109.999q.9683.7874.7266,1.2109a1.6057,1.6057,0,0,1-1.2715.4239H180.251q-.7574,0-.7569.7265v1.4229q0,.7574.7266.7568h5.8125a2.0515,2.0515,0,0,0,1.4834-.9082l.7265-.9082a1.1058,1.1058,0,0,1,1.6954-.06l1.2109.999q1.0282.8781.7266,1.3018a1.3325,1.3325,0,0,1-1.15.3935H180.251q-.7574,0-.7569.7266v3.9052a.9713.9713,0,0,1-.9082,1.06l-2.997.3633q-.9083.0908-.9083-.8174v-4.48q0-.7566-.7265-.7568h-8.87q-.9083,0-1.06-.333-.2432-.4842.5752-.4844h9.3242q.7558,0,.7568-.7265V37.48q0-.7566-.7265-.7568h-8.0225q-.9081,0-1.09-.4239t.7265-.4238h1.4532q.7558,0,.7568-.7265V32.5147q0-.7566-.7266-.7569h-2.331q-.9083,0-1.09-.4238t.7266-.4238h2.6641q.7558,0,.7568-.7266v-2.543q0-.7566-.7266-.7568h-.7568q-.9083,0-1.12-.4238-.1524-.4233.7568-.4239h18.8a2.0515,2.0515,0,0,0,1.4834-.9082ZM169.8369,18.68q0-.9683.8477-.9082l3.9052.2422a2.9534,2.9534,0,0,1,.9991.3633q.1815.4541-.4542.6963-.6664.1515-.4541,1.5439,0,.7573.7266.7568h3.36q.7559,0,.7568-.7265V18.6494a.7742.7742,0,0,1,.9082-.8779l3.542.1816a2.5777,2.5777,0,0,1,1.3623.3633q.3325.4542-.5147.8174-.3632.1516-.3632.8779v.6055q0,.7573.7265.7568h.8477a2.0515,2.0515,0,0,0,1.4834-.9082l.7265-.9082a1.1058,1.1058,0,0,1,1.6954-.0605l1.2109.999q1.0282.8783.7266,1.3018a1.4419,1.4419,0,0,1-1.1807.3632h-5.48q-.7573,0-.7568.7266v1.15a.9341.9341,0,0,1-.9082,1.0293q-1.5147.1517-3.0577.3936-.97.1215-.9687-.7569V22.918q0-.7566-.7266-.7569h-3.36q-.7573,0-.7569.7266v1.15a.9341.9341,0,0,1-.9082,1.0293l-3.0273.3936q-.9083.0907-.9082-.8174V22.918q0-.7566-.7266-.7569h-3.9052q-.9082,0-1.09-.333-.2124-.454.666-.4541H169.08q.7559,0,.7568-.7265Zm4.8437,8.9609q0-.7566-.7265-.7568h-.8174q-.7574,0-.7568.7266v2.5429q0,.7573.7265.7569h.8174q.7558,0,.7568-.7266Zm0,4.9346q0-.8174-.666-.8174h-.8779q-.7574,0-.7568.7266v2.6338q0,.7574.7265.7568h.8174q.7558,0,.7568-.7265Zm6.9024-4.9346q0-.7566-.7266-.7568h-.6054q-.7574,0-.7569.7266v2.5429q0,.7573.7266.7569h.6055q.7558,0,.7568-.7266Zm0,4.9346q0-.8174-.666-.8174h-.666q-.7574,0-.7569.7266v2.6338q0,.7574.7266.7568h.6055q.7558,0,.7568-.7265Z"></path><path class="cls-4" d="M216.3818,18.5283q.12-.9683.9688-.8173l3.27.5751a2.5217,2.5217,0,0,1,1.3018.4844q.3016.6057-.6055.878a1.4284,1.4284,0,0,0-.6055.3027l-1.6045,1.06q-.8174.5448.1211.5449h1.9981a2.6012,2.6012,0,0,0,1.6347-.8174,1.4562,1.4562,0,0,1,1.8467-.3027l2.0889,1.332q1.6347.8173.6055,1.5137a1.0174,1.0174,0,0,0-.4239.9687v2.3008a.9713.9713,0,0,1-.9082,1.06,1.0114,1.0114,0,0,1-.4541.0908q-.7266.1516.2119.7871l2.4219,1.6045q.999.6357.2119,1.1807a1.1791,1.1791,0,0,0-.3633.999v2.876q0,.9081-.6357,1.0293-.7574.1515.0908.9082l1.15.999q.9083.8173.6358,1.2109a1.412,1.412,0,0,1-1.211.4238H222.164q-.7572,0-.7568.7266v4.541a.9343.9343,0,0,1-.9082,1.0293l-3.1182.3633q-1.03.1216-1.0293-.6963v-5.207q0-.7566-.7265-.7569h-5.57q-.9083,0-1.09-.333-.2724-.484.5752-.4843h6.0547q.7559,0,.7568-.7266V36.1475q0-.7566-.3935-.7569a.4014.4014,0,0,0-.4541.4541q0,.4849-.9082.6358-1.5147.1816-3.0274.4541-.9081.0907-.9082-.2422t-.9082.333Q206.875,39.3267,204,41.7178q-.8174.575-.8779.9082-.0909.4233-.7569.7568-.5155-.1215-.6357-.9384l-1.211-3.9961q-.2724-.9992.5752-1.1807l1.3321-.2422a.8585.8585,0,0,0,.7265-.9082v-7.72q0-.7566-.7265-.7569H201.79q-.9081,0-1.09-.4238t.7265-.4238h.9688q.7559,0,.7568-.7266v-6.539a.8028.8028,0,0,1,.9082-.9082l3.33.1816a3.0278,3.0278,0,0,1,1.3018.4238q.0293.515-.6358.7871-.3032.1216-.3027.8174v4.0264q0,.999.6055.0908.4833-.7866,1.1806-.0605a.7769.7769,0,0,1,.2119.2421q.9083.9082.9082.1514V20.9805q0-.9082.9082-.666l3.7539,1.2109q.7266.0307.8477-.9082Q216.23,19.5882,216.3818,18.5283ZM210.66,28.3975q0-.7566-.7265-.7569h-1.4229q-.7574,0-.7568.7266v6.751q0,.7266.9082.5752a9.5354,9.5354,0,0,1,1.2715-.2725.8584.8584,0,0,0,.7265-.9082Zm11.3829-5.1768q0-.7866-.6963-.7871h-5.086q-.7574,0-.7568.7266v2.2705q0,.7573.7266.7568h5.0556q.7558,0,.7569-.7265Zm0,4.42q-.0309-.6357-.7569-.6357h-5.0254q-.7574,0-.7568.7266v1.09q0,.7573.7266.7568h5.9033a2.362,2.362,0,0,0,1.5742-.8476q.9083-.8775-.0908-.7266l-.9688.1211Q222.042,28.2159,222.043,27.6406Zm.9687,3.5723q0-.7866-.6963-.7871h-6.0547q-.7574,0-.7568.7266v2.6337q0,.7573.7266.7569h6.0244q.7559,0,.7568-.7266Zm0,4.9649q0-.7867-.7568-.7872-.8482,0-.8477.7266v2.0283q0,.7574.7266.7569h.8476a2.0518,2.0518,0,0,0,1.4834-.9082l.6358-.8174q.6357-.7866-.3028-.6055a4.739,4.739,0,0,0-.8779.1514Q223.0117,36.8442,223.0117,36.1778Z"></path><path class="cls-5" d="M240.6758,18.5283q.2417-.9383,1.15-.5146,1.6347.6965,3.2695,1.4834.4835.2424.3633.6357a1.6152,1.6152,0,0,1-.5147.2725,2.6018,2.6018,0,0,0-1.2109.666q-1.1206.9082-2.24,1.6953-.6664.424.3028.9082a2.3638,2.3638,0,0,1,.8779.8477q.1817.3633.666-.5449a11.6791,11.6791,0,0,1,.5752-1.12q.5142-1.15,1.4531-.5752l1.8467,1.12q.7266.3941.7266-.333v-3.3q0-.9081.9082-.6357l2.1191.7568a4.5954,4.5954,0,0,0,1.4229.2725h6.8418a2.2241,2.2241,0,0,0,1.5439-.9082,1.2858,1.2858,0,0,1,1.7256-.3936l2.24,1.3623q1.21.4542,0,1.3018-.3632.1816-.3632.8174V44.3819a2.46,2.46,0,0,1-2.3916,2.0283,10.6422,10.6422,0,0,1-1.6045.1816.9733.9733,0,0,1-1.09-.8779,3.2478,3.2478,0,0,0-1.4228-2.6641q-1.1207-.5449-1.09-.7265.0294-.1517.9385-.1514h1.6953q.7558,0,.7569-.7266V33.4531q0-.7566-.7266-.7568h-2.0586q-.7574,0-.7568.7266v2.24q-.3633,1.1506,1.09,1.09a1.6345,1.6345,0,0,1,2.0283,1.3926q.7558,2.12-1.15,1.9375h-3.33q-2.5137.0909-2.24-2.4824V33.4531q0-.7566-.4541-.7568-.5156,0-.5146.7266V45.1992a.9714.9714,0,0,1-.9082,1.06l-2.1192.333q-1.09.1216-1.09-.7871V41.6875c0-.5044-.1016-.6963-.3027-.5752q-2.06.7266-2.5127-1.665l-.1817-1.5137q-.1816-.3025-.1816.3936v6.872a.9714.9714,0,0,1-.9082,1.06l-2.1192.2422q-1.06.0908-1.0595-.8174V41.7178q0-.999-.545-.1817a11.7658,11.7658,0,0,1-1.998,2.3917q-.97.7572-1.09.666-.1216-.0909.0908-.9991a42.882,42.882,0,0,0,1.09-7.3564,1.1536,1.1536,0,0,0-.1816-.8174,3.4423,3.4423,0,0,1-.333-1.15l-.4239-1.8164q-.2432-1.1806.6661-1.2715a3.4527,3.4527,0,0,1,.7871-.03q.7264-.03,1.2412-.9991a8.0327,8.0327,0,0,1,.5752-.9687q.545-.9382.1211-.9688a1.96,1.96,0,0,1-1.7559-1.6045,5.5165,5.5165,0,0,0-.8779-3.0273q-.879-.999-.6963-1.2412.2109-.2725,1.12,0l.3936.1211q.7265.2424.999-.7569Zm-.9385,16.045.2724-.1211a2.9386,2.9386,0,0,0-1.0292.5752q-.334.3331.5751.5752l.2725.06q.8467.2124.8477-.5752Q240.6758,34.21,239.7373,34.5733Zm7.9922-9.3848a3.7471,3.7471,0,0,0-.9082.7568q-2.2706,2.2406-4.753,4.39-.6664.6357.2422.5752l2.0889-.0908q.8173-.0909.666-.7266l-.1211-.3936q-.5156-.9683-.4238-1.12.1509-.2417,1.0293.1514a7.1669,7.1669,0,0,1,1.4531.7568q.9375.7266.9385,0V25.8545C247.9414,25.35,247.87,25.1279,247.73,25.1885ZM245.126,32a.7435.7435,0,0,0-.3633.6963V34.24a1.3494,1.3494,0,0,0,.9082,1.1806,12.87,12.87,0,0,1,1.4531.7871q.8174.6057.8174-.0908v-1.665q0-.7266-.9082-.2119-.8173.3939-1.3926-.6661a4.23,4.23,0,0,1-.2422-.999Q245.3369,31.8794,245.126,32Zm15.0459-10.2627q0-.7866-.7266-.7871h-6.63q-.7574,0-.7568.3633t.9082.7871a4.5533,4.5533,0,0,1,2.4824,1.877,1.7406,1.7406,0,0,1-.6963,2.5429q-.97.485-1.665-.6054a20.1426,20.1426,0,0,1-.3633-2.18l-.1514-.4239q-.5156-.9682-.5146.0909v2.8759q0,.7573.7265.7569h2.18q.7266,0,1.0293-.9082l1.15-3.7237q.2725-.9383,1.3926-.5146l.9082.3633Q260.1719,22.4944,260.1719,21.7373ZM253.9961,28.67q0-.7866-.9385-.7871-.999,0-.999.7266v2.5127q0,.7573.9385.7568.999,0,.999-.7265Zm6.1758-4.7226c0-.5449-.0713-.8174-.212-.8174a2.903,2.903,0,0,0-.7265.7266q-.97,1.1806-1.8467,2.3613-.6357.8173,0,.8174a1.6547,1.6547,0,0,0,1.3018-.9082q.6357-.999,1.06-.5752t.4239-.333Zm0,4.7226q0-.7866-.6963-.7871h-1.2412q-.7574,0-.7569.7266v2.5127q0,.7266.3028.7568.3016-.03.9082-.9385.6357-.9683,1.0293-.5751.4541.454.4541-.3028Z"></path><path class="cls-6" d="M93.0991,54.2207l4.4609,6.75V54.1582a1.4951,1.4951,0,0,1,.2852-.9961.96.96,0,0,1,.7695-.332.9917.9917,0,0,1,.7891.332,1.4843,1.4843,0,0,1,.2891.9961V63.166q0,1.5074-1.25,1.5078a1.6612,1.6612,0,0,1-.5625-.09,1.4215,1.4215,0,0,1-.4688-.2852,2.74,2.74,0,0,1-.4062-.457c-.125-.1748-.25-.3525-.375-.5352l-4.3516-6.6718v6.7109a1.4315,1.4315,0,0,1-.3047.9922,1.0089,1.0089,0,0,1-.7812.3359.9954.9954,0,0,1-.7891-.34,1.4579,1.4579,0,0,1-.2969-.9883V54.51a2.4985,2.4985,0,0,1,.125-.8828,1.2572,1.2572,0,0,1,.4922-.5743,1.34,1.34,0,0,1,.7422-.2226,1.2159,1.2159,0,0,1,.9258.375,2.8019,2.8019,0,0,1,.3437.4453C92.853,53.833,92.9741,54.0225,93.0991,54.2207Z"></path><path class="cls-6" d="M109.7007,60.8613h-4.1719a2.8243,2.8243,0,0,0,.293,1.2813,1.9607,1.9607,0,0,0,1.8007,1.1172,2.569,2.569,0,0,0,.6993-.09,2.26,2.26,0,0,0,.6132-.2812,4.79,4.79,0,0,0,.5469-.41q.25-.2182.6485-.5937a.6993.6993,0,0,1,.4687-.1407.7714.7714,0,0,1,.5313.18.6436.6436,0,0,1,.2031.5078,1.39,1.39,0,0,1-.2266.6758,2.6905,2.6905,0,0,1-.6836.7422,3.8874,3.8874,0,0,1-1.1484.59,4.95,4.95,0,0,1-1.59.2343A4.2528,4.2528,0,0,1,104.49,63.502a4.3624,4.3624,0,0,1-1.1406-3.18,5.3053,5.3053,0,0,1,.2813-1.7539,3.87,3.87,0,0,1,.82-1.3868,3.5545,3.5545,0,0,1,1.3281-.8867,4.7614,4.7614,0,0,1,1.75-.3086,4.151,4.151,0,0,1,2.1445.5274,3.4673,3.4673,0,0,1,1.34,1.3633,3.5864,3.5864,0,0,1,.4453,1.7031,1.0637,1.0637,0,0,1-.461,1.043A2.87,2.87,0,0,1,109.7007,60.8613ZM105.5288,59.65h3.8672a2.5946,2.5946,0,0,0-.59-1.6367,1.765,1.765,0,0,0-1.3476-.543,1.7064,1.7064,0,0,0-1.3086.5508A2.7374,2.7374,0,0,0,105.5288,59.65Z"></path><path class="cls-6" d="M116.0366,57.33l1.3906,4.7656,1.2657-4.43q.2028-.6957.3007-.9492a1.2352,1.2352,0,0,1,.3672-.4844,1.1012,1.1012,0,0,1,.7383-.23,1.1144,1.1144,0,0,1,.7461.23,1.3174,1.3174,0,0,1,.3789.5q.1092.27.3047.9336l1.2656,4.43,1.4063-4.7656q.1406-.5157.2265-.7461a.9918.9918,0,0,1,.2891-.4063.87.87,0,0,1,.5859-.1757.9368.9368,0,0,1,.6641.2656.8326.8326,0,0,1,.2812.625,3.2625,3.2625,0,0,1-.2421.9922l-1.7422,5.1093q-.2271.649-.3516.9375a1.4048,1.4048,0,0,1-.3945.5157,1.3177,1.3177,0,0,1-1.5-.0157,1.4546,1.4546,0,0,1-.41-.5937q-.1332-.3516-.289-.9141l-1.2188-4.1562-1.18,4.1562a5.1,5.1,0,0,1-.5078,1.3086,1.04,1.04,0,0,1-.9609.4414,1.2182,1.2182,0,0,1-.5977-.1367,1.1505,1.1505,0,0,1-.41-.3906,2.9216,2.9216,0,0,1-.2891-.6016q-.1253-.3471-.1953-.5508l-1.7266-5.1093a3.6155,3.6155,0,0,1-.2578-.9922.8508.8508,0,0,1,.2734-.6172.9121.9121,0,0,1,.6719-.2734.7816.7816,0,0,1,.7188.3007A4.4508,4.4508,0,0,1,116.0366,57.33Z"></path><path class="cls-6" d="M132.0835,63.26V59.627l-2.7969-4.336a9.0132,9.0132,0,0,1-.5195-.914,1.3959,1.3959,0,0,1-.1524-.57.9093.9093,0,0,1,.3086-.6875,1.0749,1.0749,0,0,1,.7617-.289.93.93,0,0,1,.7227.27,8.0824,8.0824,0,0,1,.7383,1.0742l2.1406,3.4766,2.1641-3.4766q.1949-.3207.3281-.539a3.4545,3.4545,0,0,1,.293-.41,1.1578,1.1578,0,0,1,.3554-.293,1.0275,1.0275,0,0,1,.4766-.1015,1.0041,1.0041,0,0,1,.7305.2851.8955.8955,0,0,1,.2929.66,1.386,1.386,0,0,1-.1484.6094,7.9158,7.9158,0,0,1-.5078.8437l-2.8672,4.3985V63.26a1.51,1.51,0,0,1-.3281,1.0625,1.1744,1.1744,0,0,1-1.6719.0039A1.5285,1.5285,0,0,1,132.0835,63.26Z"></path><path class="cls-6" d="M148.0215,60.3379a5.0325,5.0325,0,0,1-.2969,1.7578,3.8912,3.8912,0,0,1-.8594,1.3828,3.7955,3.7955,0,0,1-1.3437.8867,4.7411,4.7411,0,0,1-1.7578.3086,4.6252,4.6252,0,0,1-1.7427-.3125,3.8442,3.8442,0,0,1-2.1992-2.27,5.024,5.024,0,0,1-.293-1.7539,5.08,5.08,0,0,1,.2969-1.7734,3.8573,3.8573,0,0,1,.8515-1.375,3.7613,3.7613,0,0,1,1.3438-.8789,5.0875,5.0875,0,0,1,3.5005.0039,3.8114,3.8114,0,0,1,1.3515.8906,3.8515,3.8515,0,0,1,.8555,1.375A5.06,5.06,0,0,1,148.0215,60.3379Zm-2.1407,0a3.2,3.2,0,0,0-.5742-2.0313,1.8653,1.8653,0,0,0-1.5429-.7265,1.914,1.914,0,0,0-1.1021.3242,2.055,2.055,0,0,0-.7344.957,4.3438,4.3438,0,0,0-.0039,2.9375,2.0914,2.0914,0,0,0,.7266.9571,1.8883,1.8883,0,0,0,1.1138.332,1.86,1.86,0,0,0,1.5429-.73A3.19,3.19,0,0,0,145.8808,60.3379Z"></path><path class="cls-6" d="M153.4824,61.5957V63.377a1.373,1.373,0,0,1-.3047.9726,1.0164,1.0164,0,0,1-.7734.3242.9763.9763,0,0,1-.7578-.3281,1.3989,1.3989,0,0,1-.2969-.9687V57.44q0-1.437,1.0391-1.4375a.8678.8678,0,0,1,.7656.3359,1.8526,1.8526,0,0,1,.2578.9922,3.7155,3.7155,0,0,1,.7851-.9922,1.6243,1.6243,0,0,1,1.0743-.3359,2.753,2.753,0,0,1,1.3047.3359,1.0027,1.0027,0,0,1,.6328.8906.8954.8954,0,0,1-.8516.8985,2.6654,2.6654,0,0,1-.5664-.1446,2.626,2.626,0,0,0-.793-.1445,1.16,1.16,0,0,0-.7656.2461,1.5744,1.5744,0,0,0-.4609.73,5.1185,5.1185,0,0,0-.2266,1.1523Q153.4819,60.6348,153.4824,61.5957Z"></path><path class="cls-6" d="M164.9512,63.6973l-1.8829-3.0938-1.1562,1.0938v1.6953a1.3054,1.3054,0,0,1-.3242.9492,1.0124,1.0124,0,0,1-.7461.332.9648.9648,0,0,1-.7735-.3281,1.4532,1.4532,0,0,1-.2812-.9687V54.2832a1.8056,1.8056,0,0,1,.2734-1.082.9129.9129,0,0,1,.7813-.3711.9783.9783,0,0,1,.7812.3359,1.4853,1.4853,0,0,1,.2891.9922V59.33l2.3984-2.5156a5.8814,5.8814,0,0,1,.68-.6407.9412.9412,0,0,1,.57-.1718.9238.9238,0,0,1,.6641.2539.8449.8449,0,0,1,.2656.6367q0,.4688-.8672,1.25l-1.1328,1.039,2.1875,3.4375q.2418.3824.3477.5821a.8109.8109,0,0,1,.1054.3789,1.1182,1.1182,0,0,1-.2773.8008.9593.9593,0,0,1-.7305.2929.8133.8133,0,0,1-.6015-.2109A5.05,5.05,0,0,1,164.9512,63.6973Z"></path><path class="cls-6" d="M180.3808,60.8613a3.0553,3.0553,0,0,1-.2695,1.1836,4.263,4.263,0,0,1-.8476,1.25,4.3231,4.3231,0,0,1-1.4766.9961,5.3123,5.3123,0,0,1-2.0938.3828,7.339,7.339,0,0,1-1.6484-.1718,4.6166,4.6166,0,0,1-1.3477-.5352,4.5647,4.5647,0,0,1-1.1132-.957,5.7117,5.7117,0,0,1-.7735-1.2071,6.2687,6.2687,0,0,1-.48-1.4257,7.79,7.79,0,0,1-.16-1.6094,7.1344,7.1344,0,0,1,.4023-2.4766,5.2882,5.2882,0,0,1,1.1524-1.8711,5.0178,5.0178,0,0,1,1.7578-1.1836,5.6971,5.6971,0,0,1,2.1484-.4062,5.3639,5.3639,0,0,1,2.4766.5547,4.4939,4.4939,0,0,1,1.6641,1.3711,2.704,2.704,0,0,1,.5781,1.5429,1.006,1.006,0,0,1-.2813.7032.8915.8915,0,0,1-.68.3046.9388.9388,0,0,1-.668-.2109,2.9269,2.9269,0,0,1-.4961-.7266,3.4919,3.4919,0,0,0-1.0664-1.2734,2.6058,2.6058,0,0,0-1.5117-.4219,2.7409,2.7409,0,0,0-2.2774,1.086,4.9155,4.9155,0,0,0-.8476,3.0859,5.73,5.73,0,0,0,.375,2.2227,2.8113,2.8113,0,0,0,1.0625,1.3242,2.93,2.93,0,0,0,1.6093.4375,2.8224,2.8224,0,0,0,1.6914-.4961,2.9982,2.9982,0,0,0,1.043-1.457,2.4812,2.4812,0,0,1,.3672-.7383.8286.8286,0,0,1,.7031-.2852.9846.9846,0,0,1,.711.2891A.9614.9614,0,0,1,180.3808,60.8613Z"></path><path class="cls-6" d="M186.0674,54.127v3.164a4.5629,4.5629,0,0,1,.7929-.7422,2.8389,2.8389,0,0,1,.8555-.41,3.5968,3.5968,0,0,1,1.0078-.1367,2.9509,2.9509,0,0,1,1.4414.3437,2.4557,2.4557,0,0,1,.9883,1,2.4293,2.4293,0,0,1,.3047.8555,6.7967,6.7967,0,0,1,.0781,1.09v4.086a1.4128,1.4128,0,0,1-.293.9687.9906.9906,0,0,1-.7773.3281q-1.0547,0-1.0547-1.2968V59.7754a3.3,3.3,0,0,0-.3047-1.5742A1.2019,1.2019,0,0,0,187.95,57.65a1.7365,1.7365,0,0,0-1.0274.3242,1.9515,1.9515,0,0,0-.6836.8867,5.6865,5.6865,0,0,0-.1718,1.6953v2.82a1.4407,1.4407,0,0,1-.2852.9648.9882.9882,0,0,1-.793.332q-1.0547,0-1.0546-1.2968v-9.25a1.4648,1.4648,0,0,1,.2773-.9727.9686.9686,0,0,1,.7773-.3242.995.995,0,0,1,.793.3281A1.4382,1.4382,0,0,1,186.0674,54.127Z"></path><path class="cls-6" d="M196.3877,55.01a1.1235,1.1235,0,0,1-.7617-.2735,1.0609,1.0609,0,0,1,.0078-1.52,1.09,1.09,0,0,1,.7539-.293,1.12,1.12,0,0,1,.7344.2657.9455.9455,0,0,1,.32.7734.976.976,0,0,1-.3125.77A1.0825,1.0825,0,0,1,196.3877,55.01Zm1.0547,2.2031V63.377a1.3771,1.3771,0,0,1-.3047.9687,1.0094,1.0094,0,0,1-.7735.3281.9642.9642,0,0,1-.7617-.3359,1.4169,1.4169,0,0,1-.2929-.9609V57.2754a1.37,1.37,0,0,1,.2929-.9531.9832.9832,0,0,1,.7617-.32,1.02,1.02,0,0,1,.7735.32A1.2411,1.2411,0,0,1,197.4424,57.2129Z"></path><path class="cls-6" d="M203.2471,57.1816V57.44a3.7254,3.7254,0,0,1,1.23-1.09,3.282,3.282,0,0,1,1.5352-.3476,3.0592,3.0592,0,0,1,1.5078.3671,2.3356,2.3356,0,0,1,.9922,1.0391,2.4837,2.4837,0,0,1,.2734.8438,8.6811,8.6811,0,0,1,.0625,1.1562V63.377a1.4128,1.4128,0,0,1-.293.9687.9731.9731,0,0,1-.7617.3281.9854.9854,0,0,1-.7734-.3359,1.4024,1.4024,0,0,1-.2969-.9609V59.8223a3.55,3.55,0,0,0-.293-1.6133,1.1938,1.1938,0,0,0-1.1679-.5586,1.7307,1.7307,0,0,0-1.0391.34,1.9528,1.9528,0,0,0-.6875.9336,6.6653,6.6653,0,0,0-.1562,1.7813V63.377a1.386,1.386,0,0,1-.3008.9726,1.0134,1.0134,0,0,1-.7774.3242.9674.9674,0,0,1-.7578-.3359,1.4029,1.4029,0,0,1-.2968-.9609V57.2129a1.3432,1.3432,0,0,1,.2656-.91.9194.9194,0,0,1,.7265-.3007.9831.9831,0,0,1,.5079.1328.9506.9506,0,0,1,.3632.3984A1.4074,1.4074,0,0,1,203.2471,57.1816Z"></path><path class="cls-6" d="M218.0283,63.4707a6.5864,6.5864,0,0,1-1.4961.9024,4.1881,4.1881,0,0,1-1.6211.3007A3.0754,3.0754,0,0,1,213.47,64.35a2.3652,2.3652,0,0,1-.957-.8789,2.2828,2.2828,0,0,1-.336-1.2031,2.1525,2.1525,0,0,1,.5547-1.4922,2.7779,2.7779,0,0,1,1.5235-.8281q.2036-.047,1.0078-.211t1.3789-.3007q.5742-.1364,1.2461-.3321a2.2289,2.2289,0,0,0-.34-1.2383,1.5205,1.5205,0,0,0-1.2461-.3945,2.5909,2.5909,0,0,0-1.2226.2266,1.9889,1.9889,0,0,0-.7031.68q-.2931.4525-.4141.5976a.6785.6785,0,0,1-.52.1445.9115.9115,0,0,1-.6211-.23.75.75,0,0,1-.2617-.59,1.8048,1.8048,0,0,1,.3984-1.0937A2.8491,2.8491,0,0,1,214.2,56.33a5.5886,5.5886,0,0,1,2.1015-.3438,5.94,5.94,0,0,1,2.211.3321,2.0574,2.0574,0,0,1,1.1367,1.0507,4.59,4.59,0,0,1,.332,1.9063q0,.75-.0039,1.2734t-.0117,1.1641a4.2856,4.2856,0,0,0,.1992,1.2539,3.9543,3.9543,0,0,1,.1992.84.7848.7848,0,0,1-.3086.5977,1.0338,1.0338,0,0,1-.6992.2695.9422.9422,0,0,1-.6484-.3086A4.5633,4.5633,0,0,1,218.0283,63.4707Zm-.1406-3.0859a10.8564,10.8564,0,0,1-1.3633.3633q-.8951.1918-1.2383.2812a1.6728,1.6728,0,0,0-.6562.3516.9019.9019,0,0,0-.3125.73,1.08,1.08,0,0,0,.3672.8243,1.36,1.36,0,0,0,.9609.34,2.5044,2.5044,0,0,0,1.168-.2773,1.851,1.851,0,0,0,.7851-.7149,3.27,3.27,0,0,0,.2891-1.5937Z"></path><path class="cls-6" d="M223.5283,56.19h.2344V54.9082q0-.5155.0273-.8086a1.2042,1.2042,0,0,1,.1524-.5039.96.96,0,0,1,.3593-.3555,1.0242,1.0242,0,0,1,.5235-.1367,1.0541,1.0541,0,0,1,.7344.3047.9061.9061,0,0,1,.2773.4961,4.5033,4.5033,0,0,1,.0586.832V56.19h.7812a.9991.9991,0,0,1,.6914.2148.7082.7082,0,0,1,.2383.5508.6167.6167,0,0,1-.34.6015,2.21,2.21,0,0,1-.9727.1719h-.3984V61.65a6.3776,6.3776,0,0,0,.0351.77.7854.7854,0,0,0,.1875.4375.64.64,0,0,0,.4961.168,2.6872,2.6872,0,0,0,.5079-.0664,2.6577,2.6577,0,0,1,.5-.0664.6433.6433,0,0,1,.4648.207.6958.6958,0,0,1,.207.5117.8566.8566,0,0,1-.5625.7891,3.7967,3.7967,0,0,1-1.6172.2734,2.7963,2.7963,0,0,1-1.5156-.3359,1.5581,1.5581,0,0,1-.6758-.93,6.3244,6.3244,0,0,1-.16-1.5859V57.7285h-.2813a1.0158,1.0158,0,0,1-.7031-.2187.7161.7161,0,0,1-.2422-.5547.6912.6912,0,0,1,.2539-.5508A1.1122,1.1122,0,0,1,223.5283,56.19Z"></path><path class="cls-6" d="M238.7236,60.3379a5.03,5.03,0,0,1-.2969,1.7578,3.891,3.891,0,0,1-.8593,1.3828,3.7959,3.7959,0,0,1-1.3438.8867,4.7407,4.7407,0,0,1-1.7578.3086,4.623,4.623,0,0,1-1.7422-.3125,3.8449,3.8449,0,0,1-2.1992-2.27,5.0263,5.0263,0,0,1-.293-1.7539,5.0819,5.0819,0,0,1,.2969-1.7734,3.8561,3.8561,0,0,1,.8516-1.375,3.7609,3.7609,0,0,1,1.3437-.8789,5.0861,5.0861,0,0,1,3.5.0039,3.8109,3.8109,0,0,1,1.3516.8906,3.8512,3.8512,0,0,1,.8554,1.375A5.0579,5.0579,0,0,1,238.7236,60.3379Zm-2.1406,0a3.2,3.2,0,0,0-.5742-2.0313,1.8654,1.8654,0,0,0-1.543-.7265,1.9125,1.9125,0,0,0-1.1016.3242,2.0549,2.0549,0,0,0-.7343.957,4.3438,4.3438,0,0,0-.0039,2.9375,2.0906,2.0906,0,0,0,.7265.9571,1.887,1.887,0,0,0,1.1133.332,1.8607,1.8607,0,0,0,1.543-.73A3.19,3.19,0,0,0,236.583,60.3379Z"></path><path class="cls-6" d="M243.3955,57.33l1.3906,4.7656,1.2656-4.43q.2037-.6957.3008-.9492a1.24,1.24,0,0,1,.3672-.4844,1.1012,1.1012,0,0,1,.7383-.23,1.1144,1.1144,0,0,1,.7461.23,1.3184,1.3184,0,0,1,.3789.5q.11.27.3047.9336l1.2656,4.43L251.56,57.33q.1406-.5157.2265-.7461a.9945.9945,0,0,1,.2891-.4063.8715.8715,0,0,1,.5859-.1757.9368.9368,0,0,1,.6641.2656.8326.8326,0,0,1,.2812.625,3.26,3.26,0,0,1-.2422.9922l-1.7421,5.1093q-.2271.649-.3516.9375a1.4,1.4,0,0,1-.3945.5157,1.3177,1.3177,0,0,1-1.5-.0157,1.4642,1.4642,0,0,1-.41-.5937q-.1334-.3516-.2891-.9141l-1.2187-4.1562-1.18,4.1562a5.0814,5.0814,0,0,1-.5078,1.3086,1.04,1.04,0,0,1-.9609.4414,1.2182,1.2182,0,0,1-.5977-.1367,1.1516,1.1516,0,0,1-.41-.3906,2.9267,2.9267,0,0,1-.289-.6016q-.1245-.3471-.1953-.5508l-1.7266-5.1093a3.6155,3.6155,0,0,1-.2578-.9922.8508.8508,0,0,1,.2734-.6172.9127.9127,0,0,1,.6719-.2734.781.781,0,0,1,.7188.3007A4.4508,4.4508,0,0,1,243.3955,57.33Z"></path><path class="cls-6" d="M258.6767,57.1816V57.44a3.7256,3.7256,0,0,1,1.2305-1.09,3.2817,3.2817,0,0,1,1.5352-.3476,3.0592,3.0592,0,0,1,1.5078.3671,2.3356,2.3356,0,0,1,.9922,1.0391,2.4837,2.4837,0,0,1,.2734.8438,8.6811,8.6811,0,0,1,.0625,1.1562V63.377a1.4133,1.4133,0,0,1-.293.9687.9731.9731,0,0,1-.7617.3281.9854.9854,0,0,1-.7734-.3359,1.4024,1.4024,0,0,1-.2969-.9609V59.8223a3.5516,3.5516,0,0,0-.293-1.6133,1.1938,1.1938,0,0,0-1.1679-.5586,1.7307,1.7307,0,0,0-1.0391.34,1.9528,1.9528,0,0,0-.6875.9336,6.6653,6.6653,0,0,0-.1562,1.7813V63.377a1.386,1.386,0,0,1-.3008.9726,1.0134,1.0134,0,0,1-.7774.3242.9674.9674,0,0,1-.7578-.3359,1.4029,1.4029,0,0,1-.2969-.9609V57.2129a1.3432,1.3432,0,0,1,.2657-.91.9194.9194,0,0,1,.7265-.3007.9825.9825,0,0,1,.5078.1328.95.95,0,0,1,.3633.3984A1.4087,1.4087,0,0,1,258.6767,57.1816Z"></path><path class="cls-7" d="M53.0509,8.72c1.2588.1678,2.5271.2844,3.774.5164a10.2783,10.2783,0,0,1,4.4,1.8257A5.2093,5.2093,0,0,1,63.26,14.0617c.2983,1.2753.8572,2.2165,2.2958,2.4074a6.6023,6.6023,0,0,1,1.3268.4832,4.1422,4.1422,0,0,1,2.3884,2.0733A4.9446,4.9446,0,0,0,73.6,21.5411c.8792.0769,1.7632.0974,2.6449.1469,1.0125.0568,1.3489.4152,1.3467,1.4275a6.3937,6.3937,0,0,1-7.204,6.1277,13.4441,13.4441,0,0,1-6.3856-2.565A23.84,23.84,0,0,0,57.4,23.1613,19.3847,19.3847,0,1,0,70.5591,45.9148a16.6039,16.6039,0,0,0-.0619-8.2284c-.0845-.2952-.1279-.5549.2565-.6931a7.7173,7.7173,0,0,1,5.0073-.2809c2.651.8154,3.4684,4.4023,2.8,6.1115a1.9092,1.9092,0,0,1-1.67,1.2685,2.1754,2.1754,0,0,1-2.1318-.8292,1.275,1.275,0,0,1,.1838-1.6829,1.7009,1.7009,0,0,1,2.0035-.0466,4.06,4.06,0,0,1,.338.3566,1.3615,1.3615,0,0,0-.9143-1.6085,2.1831,2.1831,0,0,0-2.4761.3412,2.4877,2.4877,0,0,0-.6788,2.7118,3.31,3.31,0,0,0,3.1128,2.1146,20.4446,20.4446,0,0,0,2.212-.186,14.5029,14.5029,0,0,1-.1794,1.7594A28.5213,28.5213,0,0,1,68.366,63.6284a23.9634,23.9634,0,0,1-7.2691,4.3176c-.2677.0909-.5483.1439-.86.2239a3.6466,3.6466,0,0,1-.0638-.4638A4.4124,4.4124,0,0,0,55.1662,63.19a17.01,17.01,0,0,0-4.0153,1.0844,29.7086,29.7086,0,0,1-6.7844,1.9515c-4.928.6133-9.2808-.5345-12.9-4.0783A28.459,28.459,0,0,1,24.532,51.5745c-.0955-.2586-.1575-.5295-.2527-.8548.2922.0247.4927.0393.6926.0588a3.3657,3.3657,0,0,0,3.2944-1.6366,3.2566,3.2566,0,0,0,.1343-3.56,8.3271,8.3271,0,0,0-.93-1.3738c-3.07-3.6839-3.6283-7.8366-2.3106-12.3326a24.4585,24.4585,0,0,1,7.5314-11.2771,28.9343,28.9343,0,0,1,11.2716-6.253c.2219-.0663.4373-.1543.6556-.2321l-.04-.1684c-.4469.0781-.8966.1425-1.34.2366A28.2468,28.2468,0,0,0,34.75,17.3891c-1.0454.6117-2.117,1.1793-3.1851,1.7513a4.7306,4.7306,0,0,1-3.8778.2978,3.4346,3.4346,0,0,1-2.07-5.0959,9.3461,9.3461,0,0,1,1.6307-2.062A14.779,14.779,0,0,1,31.55,9.34a1.1144,1.1144,0,0,1,.6442-.1091c-.5507.7589-1.1054,1.5149-1.65,2.2784a4.493,4.493,0,0,0-.4124.6848.8867.8867,0,0,0,.9359,1.3594,5.394,5.394,0,0,0,1.6975-.5081A43.5675,43.5675,0,0,1,49.1859,8.8425c.2626-.02.5221-.08.7831-.1221ZM37.4181,20.6365c-3.1162.36-10.1072,9.1176-9.7427,12.3368a31.3339,31.3339,0,0,1,4.163-6.7958m3.5488,36.5148.1449-.1268L29.039,55.0873l-.1523.1334A17.7413,17.7413,0,0,0,35.3872,62.6923Zm35.8845-4.2908c1.9276-1.0564,4.8461-7.1671,4.2483-8.9131A37.8664,37.8664,0,0,1,71.2717,58.4015Z"></path><path class="cls-7" d="M49.9677,44.1417c-1.0512.22-1.9859.43-2.9265.6083-1.33.2526-2.66.5089-3.9976.7153a4.1109,4.1109,0,0,1-4.3359-2.1375c.8251-.1068,1.5991-.2141,2.375-.3059,1.5294-.1809,3.0583-.3694,4.5907-.52.5332-.0525.7413-.2532.589-.7828-.0566-.1968-.0862-.4014-.1266-.6027-.1222-.6087-.2938-1.03-1.1177-.9059a1.9057,1.9057,0,0,1-1.85-1.0129c-.3444-.5243-.1959-.9028.414-1.0526.3975-.0975.8093-.1352,1.2128-.21.7549-.139.7985-.2041.59-.9209-.1481-.5081-.3135-1.0112-.47-1.5142a1.6616,1.6616,0,0,1,2.1129.69,1.863,1.863,0,0,0,1.8543,1.0362c.5775-.0524.8618.449.5855.9638a3.9442,3.9442,0,0,1-.7333.8969,1.3088,1.3088,0,0,0-.433,1.4376c.0883.2723.1013.5706.2026.8365.116.3045-.02.8171.5681.7844A1.086,1.086,0,0,0,50.1,41.1182a26.2073,26.2073,0,0,0-.2251-3.4339,5.6766,5.6766,0,0,1,.0559-2.7253,5.6737,5.6737,0,0,0,.1142-.6443c-.8982.0758-1.7473.1637-2.5985.2133a5.9731,5.9731,0,0,1-1.5834-.0293.9586.9586,0,0,1-.6275-.6758c.0038-.23.3807-.58.6557-.6571,1.2636-.355,2.5406-.6759,3.8291-.9248a3.0327,3.0327,0,0,0,2.2289-1.565c.02-.0358.0457-.0683.067-.1034.5934-.9772,1.5147-1.93.1331-3.0262.4486-.3572.7571-.7348,1.3454-.6221.1071.0205.3772-.2788.4021-.4545.0888-.6285.1059-1.2673.1476-1.9023.04-.6124.2688-.8381.8843-.8668A1.46,1.46,0,0,1,56.5008,25.75c-.053.1711-.1036.3428-.1667.5521.8843.0832,1.713.1911,2.5449.2315a2.3108,2.3108,0,0,1,1.9068,1.2693,3.02,3.02,0,0,1-2.5782.682,13.262,13.262,0,0,0-2.1379-.2605,1.1453,1.1453,0,0,0-.8454.316c-.6343.8054-1.1978,1.6667-1.7789,2.5133a2.481,2.481,0,0,0-.1809.4652c1.5654-.3368,3.0453-.5373,3.7774,1.3422a3.1358,3.1358,0,0,1-1.9711.6107c-.7561.0737-1.5127.1446-2.27.2a.5762.5762,0,0,0-.61.6744c.0461,2.0117.0667,4.0243.1485,6.0344a2.8184,2.8184,0,0,0,.4959,1.236,12.77,12.77,0,0,0,1.604-6.9991c1.677.2144,2.0681.63,2.5127,2.5851.9194-.1843,1.84-.3739,2.7628-.5523a2.1674,2.1674,0,0,1,2.3664,1.0408c.3761.7221.0978,1.2446-.7165,1.2355-1.4989-.0168-2.9981-.0685-4.4953-.1436-.4645-.0233-.7075.0919-.8437.5629-.1809.6253-.45,1.225-.7243,1.95.2707-.0437.4405-.06.6045-.1a6.1373,6.1373,0,0,1,2.9273-.08.8336.8336,0,0,0,.5727-.099,3.06,3.06,0,0,1,2.8392-.2023,7.1933,7.1933,0,0,1,1.1795.5256,1.8414,1.8414,0,0,1,.7464.696,1.5884,1.5884,0,0,1,.1483,1.1822,1.4132,1.4132,0,0,1-1.0646.5147c-1.23.0363-2.4637-.06-3.6959-.0589-1.9911.0024-3.9821.0432-5.9732.0656a.7249.7249,0,0,0-.8157.7237c-.0593.5161-.1729,1.0259-.2784,1.6274a5,5,0,0,0,.6051-.0949,8.908,8.908,0,0,1,4.8578.2128.8913.8913,0,0,1,.6737.9815.9579.9579,0,0,1-.8366.9955,8.6727,8.6727,0,0,1-1.4118.0779c-.9243.0107-1.8489-.0079-2.7731.0071-1.0365.0169-1.1408.1058-1.1752,1.122-.05,1.4767-.0028,2.9591-.1108,4.4307-.147,2.0039-.3849,4.0019-.6268,5.9972a2.877,2.877,0,0,1-.4591.8819c-.6434-.2346-.77-.6794-.8976-1.2141-.7929-3.3273-.27-6.7-.4009-10.0486-.0072-.1844-.0074-.3691-.0167-.5534a.9516.9516,0,0,0-.0843-.1972c-.8985.0974-1.8251.2063-2.7535.2966a1.9024,1.9024,0,0,1-2.1756-1.9516c.5332-.0687,1.0733-.1385,1.6134-.2079.9161-.1176,1.8317-.2388,2.7484-.351a.7168.7168,0,0,0,.6984-.7827C49.9742,45.2072,49.9677,44.7213,49.9677,44.1417Z"></path><path class="cls-7" d="M55.5369,69.6653a1.6422,1.6422,0,0,0-.055-3.0085,4.1214,4.1214,0,0,0-1.919-.1556,22.9356,22.9356,0,0,0-3.3858,1.1,13.3987,13.3987,0,0,1-9.6162.52c-1.09-.3794-2.1165-.9442-3.172-1.4243l.08-.21c.5586.1389,1.1149.2874,1.676.4152a15.9143,15.9143,0,0,0,9.6014-.7882c1.2779-.5062,2.5581-1.0066,3.8345-1.5164a7.1338,7.1338,0,0,1,3.3152-.504,3.4184,3.4184,0,0,1,3.3017,4.2928,3.94,3.94,0,0,1-2.65,3.1423,3.4,3.4,0,0,1-3.6243-.6467,3.6047,3.6047,0,0,1-.6356-.7453,1.6294,1.6294,0,0,1,.4388-2.2841,1.8542,1.8542,0,0,1,2.497.3028A4.7829,4.7829,0,0,1,55.5369,69.6653Z"></path><path class="cls-7" d="M24.1944,47.9319c.3268-.0312.72.042.9666-.1154a1.2572,1.2572,0,0,0,.5909-1.4915,3.4976,3.4976,0,0,0-.8086-1.4258c-2.3607-2.1835-2.6243-4.8842-2.0485-7.8177a8.1781,8.1781,0,0,1,.4347-1.54c.0928.91.1677,1.8231.282,2.7308a11.0557,11.0557,0,0,0,2.3432,5.4107,15.4825,15.4825,0,0,1,1.3358,1.8388,2.6874,2.6874,0,0,1-1.9988,4.0507,2.38,2.38,0,0,1-2.6694-2.4486,1.4,1.4,0,0,1,.9663-1.3007,1,1,0,0,1,1.3728.5516c.228.6.0619.9154-.6345,1.2136a.82.82,0,0,0-.1457.1042Z"></path><path class="cls-7" d="M45.6048,24.1472a3.3407,3.3407,0,0,1,3.0669,3.1836c.133,1.3025.2879,2.6028.433,3.9034a1.2556,1.2556,0,0,1-1.5513-.3594,3.026,3.026,0,0,1-.5917-.8571.9161.9161,0,0,0-1.236-.5744c-.36.0824-.7117.1983-1.0707.2847A1.8979,1.8979,0,0,1,42.35,28.6663c-.3095-.6435-.0982-1.09.6127-1.2044.8913-.1434,1.7893-.245,2.6839-.369a2.084,2.084,0,0,0,.2847-.0725Z"></path></g></svg> 